<svg xmlns="http://www.w3.org/2000/svg" width="258" height="149" viewbox="0 0 258 149" preserveAspectRatio="none"><rect x="0" y="0" width="100%" height="100%" fill="rgb(69, 100, 137)" /><polyline points="0, 0, 43.012595054627, 24.833333333333, 0, 49.666666666667, 0, 0" fill="#ddd" fill-opacity="0.089333333333333" stroke="#000" stroke-opacity="0.02" transform="translate(0, -24.833333333333) rotate(180, 21.506297527314, 24.833333333333)" /><polyline points="0, 0, 43.012595054627, 24.833333333333, 0, 49.666666666667, 0, 0" fill="#ddd" fill-opacity="0.089333333333333" stroke="#000" stroke-opacity="0.02" transform="translate(0, 124.16666666667) rotate(180, 21.506297527314, 24.833333333333)" /><polyline points="0, 0, 43.012595054627, 24.833333333333, 0, 49.666666666667, 0, 0" fill="#222" fill-opacity="0.063333333333333" stroke="#000" stroke-opacity="0.02" transform="translate(43.012595054627, -24.833333333333) rotate(0, 21.506297527314, 24.833333333333)" /><polyline points="0, 0, 43.012595054627, 24.833333333333, 0, 49.666666666667, 0, 0" fill="#222" fill-opacity="0.063333333333333" stroke="#000" stroke-opacity="0.02" transform="translate(43.012595054627, 124.16666666667) rotate(0, 21.506297527314, 24.833333333333)" /><polyline points="0, 0, 43.012595054627, 24.833333333333, 0, 49.666666666667, 0, 0" fill="#222" fill-opacity="0.063333333333333" stroke="#000" stroke-opacity="0.02" transform="translate(86.025190109254, -24.833333333333) rotate(180, 21.506297527314, 24.833333333333)" /><polyline points="0, 0, 43.012595054627, 24.833333333333, 0, 49.666666666667, 0, 0" fill="#222" fill-opacity="0.063333333333333" stroke="#000" stroke-opacity="0.02" transform="translate(86.025190109254, 124.16666666667) rotate(180, 21.506297527314, 24.833333333333)" /><polyline points="0, 0, 43.012595054627, 24.833333333333, 0, 49.666666666667, 0, 0" fill="#ddd" fill-opacity="0.10666666666667" stroke="#000" stroke-opacity="0.02" transform="translate(129.03778516388, -24.833333333333) rotate(0, 21.506297527314, 24.833333333333)" /><polyline points="0, 0, 43.012595054627, 24.833333333333, 0, 49.666666666667, 0, 0" fill="#ddd" fill-opacity="0.10666666666667" stroke="#000" stroke-opacity="0.02" transform="translate(129.03778516388, 124.16666666667) rotate(0, 21.506297527314, 24.833333333333)" /><polyline points="0, 0, 43.012595054627, 24.833333333333, 0, 49.666666666667, 0, 0" fill="#ddd" fill-opacity="0.124" stroke="#000" stroke-opacity="0.02" transform="translate(172.05038021851, -24.833333333333) rotate(180, 21.506297527314, 24.833333333333)" /><polyline points="0, 0, 43.012595054627, 24.833333333333, 0, 49.666666666667, 0, 0" fill="#ddd" fill-opacity="0.124" stroke="#000" stroke-opacity="0.02" transform="translate(172.05038021851, 124.16666666667) rotate(180, 21.506297527314, 24.833333333333)" /><polyline points="0, 0, 43.012595054627, 24.833333333333, 0, 49.666666666667, 0, 0" fill="#ddd" fill-opacity="0.124" stroke="#000" stroke-opacity="0.02" transform="translate(215.06297527314, -24.833333333333) rotate(0, 21.506297527314, 24.833333333333)" /><polyline points="0, 0, 43.012595054627, 24.833333333333, 0, 49.666666666667, 0, 0" fill="#ddd" fill-opacity="0.124" stroke="#000" stroke-opacity="0.02" transform="translate(215.06297527314, 124.16666666667) rotate(0, 21.506297527314, 24.833333333333)" /><polyline points="0, 0, 43.012595054627, 24.833333333333, 0, 49.666666666667, 0, 0" fill="#ddd" fill-opacity="0.037333333333333" stroke="#000" stroke-opacity="0.02" transform="translate(0, 0) rotate(0, 21.506297527314, 24.833333333333)" /><polyline points="0, 0, 43.012595054627, 24.833333333333, 0, 49.666666666667, 0, 0" fill="#ddd" fill-opacity="0.10666666666667" stroke="#000" stroke-opacity="0.02" transform="translate(43.012595054627, 0) rotate(180, 21.506297527314, 24.833333333333)" /><polyline points="0, 0, 43.012595054627, 24.833333333333, 0, 49.666666666667, 0, 0" fill="#222" fill-opacity="0.080666666666667" stroke="#000" stroke-opacity="0.02" transform="translate(86.025190109254, 0) rotate(0, 21.506297527314, 24.833333333333)" /><polyline points="0, 0, 43.012595054627, 24.833333333333, 0, 49.666666666667, 0, 0" fill="#222" fill-opacity="0.15" stroke="#000" stroke-opacity="0.02" transform="translate(129.03778516388, 0) rotate(180, 21.506297527314, 24.833333333333)" /><polyline points="0, 0, 43.012595054627, 24.833333333333, 0, 49.666666666667, 0, 0" fill="#222" fill-opacity="0.13266666666667" stroke="#000" stroke-opacity="0.02" transform="translate(172.05038021851, 0) rotate(0, 21.506297527314, 24.833333333333)" /><polyline points="0, 0, 43.012595054627, 24.833333333333, 0, 49.666666666667, 0, 0" fill="#222" fill-opacity="0.028666666666667" stroke="#000" stroke-opacity="0.02" transform="translate(215.06297527314, 0) rotate(180, 21.506297527314, 24.833333333333)" /><polyline points="0, 0, 43.012595054627, 24.833333333333, 0, 49.666666666667, 0, 0" fill="#ddd" fill-opacity="0.089333333333333" stroke="#000" stroke-opacity="0.02" transform="translate(0, 24.833333333333) rotate(180, 21.506297527314, 24.833333333333)" /><polyline points="0, 0, 43.012595054627, 24.833333333333, 0, 49.666666666667, 0, 0" fill="#ddd" fill-opacity="0.072" stroke="#000" stroke-opacity="0.02" transform="translate(43.012595054627, 24.833333333333) rotate(0, 21.506297527314, 24.833333333333)" /><polyline points="0, 0, 43.012595054627, 24.833333333333, 0, 49.666666666667, 0, 0" fill="#ddd" fill-opacity="0.072" stroke="#000" stroke-opacity="0.02" transform="translate(86.025190109254, 24.833333333333) rotate(180, 21.506297527314, 24.833333333333)" /><polyline points="0, 0, 43.012595054627, 24.833333333333, 0, 49.666666666667, 0, 0" fill="#ddd" fill-opacity="0.089333333333333" stroke="#000" stroke-opacity="0.02" transform="translate(129.03778516388, 24.833333333333) rotate(0, 21.506297527314, 24.833333333333)" /><polyline points="0, 0, 43.012595054627, 24.833333333333, 0, 49.666666666667, 0, 0" fill="#222" fill-opacity="0.13266666666667" stroke="#000" stroke-opacity="0.02" transform="translate(172.05038021851, 24.833333333333) rotate(180, 21.506297527314, 24.833333333333)" /><polyline points="0, 0, 43.012595054627, 24.833333333333, 0, 49.666666666667, 0, 0" fill="#222" fill-opacity="0.098" stroke="#000" stroke-opacity="0.02" transform="translate(215.06297527314, 24.833333333333) rotate(0, 21.506297527314, 24.833333333333)" /><polyline points="0, 0, 43.012595054627, 24.833333333333, 0, 49.666666666667, 0, 0" fill="#222" fill-opacity="0.046" stroke="#000" stroke-opacity="0.02" transform="translate(0, 49.666666666667) rotate(0, 21.506297527314, 24.833333333333)" /><polyline points="0, 0, 43.012595054627, 24.833333333333, 0, 49.666666666667, 0, 0" fill="#222" fill-opacity="0.15" stroke="#000" stroke-opacity="0.02" transform="translate(43.012595054627, 49.666666666667) rotate(180, 21.506297527314, 24.833333333333)" /><polyline points="0, 0, 43.012595054627, 24.833333333333, 0, 49.666666666667, 0, 0" fill="#222" fill-opacity="0.15" stroke="#000" stroke-opacity="0.02" transform="translate(86.025190109254, 49.666666666667) rotate(0, 21.506297527314, 24.833333333333)" /><polyline points="0, 0, 43.012595054627, 24.833333333333, 0, 49.666666666667, 0, 0" fill="#222" fill-opacity="0.028666666666667" stroke="#000" stroke-opacity="0.02" transform="translate(129.03778516388, 49.666666666667) rotate(180, 21.506297527314, 24.833333333333)" /><polyline points="0, 0, 43.012595054627, 24.833333333333, 0, 49.666666666667, 0, 0" fill="#ddd" fill-opacity="0.10666666666667" stroke="#000" stroke-opacity="0.02" transform="translate(172.05038021851, 49.666666666667) rotate(0, 21.506297527314, 24.833333333333)" /><polyline points="0, 0, 43.012595054627, 24.833333333333, 0, 49.666666666667, 0, 0" fill="#222" fill-opacity="0.063333333333333" stroke="#000" stroke-opacity="0.02" transform="translate(215.06297527314, 49.666666666667) rotate(180, 21.506297527314, 24.833333333333)" /><polyline points="0, 0, 43.012595054627, 24.833333333333, 0, 49.666666666667, 0, 0" fill="#222" fill-opacity="0.13266666666667" stroke="#000" stroke-opacity="0.02" transform="translate(0, 74.5) rotate(180, 21.506297527314, 24.833333333333)" /><polyline points="0, 0, 43.012595054627, 24.833333333333, 0, 49.666666666667, 0, 0" fill="#ddd" fill-opacity="0.02" stroke="#000" stroke-opacity="0.02" transform="translate(43.012595054627, 74.5) rotate(0, 21.506297527314, 24.833333333333)" /><polyline points="0, 0, 43.012595054627, 24.833333333333, 0, 49.666666666667, 0, 0" fill="#222" fill-opacity="0.080666666666667" stroke="#000" stroke-opacity="0.02" transform="translate(86.025190109254, 74.5) rotate(180, 21.506297527314, 24.833333333333)" /><polyline points="0, 0, 43.012595054627, 24.833333333333, 0, 49.666666666667, 0, 0" fill="#222" fill-opacity="0.15" stroke="#000" stroke-opacity="0.02" transform="translate(129.03778516388, 74.5) rotate(0, 21.506297527314, 24.833333333333)" /><polyline points="0, 0, 43.012595054627, 24.833333333333, 0, 49.666666666667, 0, 0" fill="#222" fill-opacity="0.028666666666667" stroke="#000" stroke-opacity="0.02" transform="translate(172.05038021851, 74.5) rotate(180, 21.506297527314, 24.833333333333)" /><polyline points="0, 0, 43.012595054627, 24.833333333333, 0, 49.666666666667, 0, 0" fill="#222" fill-opacity="0.046" stroke="#000" stroke-opacity="0.02" transform="translate(215.06297527314, 74.5) rotate(0, 21.506297527314, 24.833333333333)" /><polyline points="0, 0, 43.012595054627, 24.833333333333, 0, 49.666666666667, 0, 0" fill="#ddd" fill-opacity="0.054666666666667" stroke="#000" stroke-opacity="0.02" transform="translate(0, 99.333333333333) rotate(0, 21.506297527314, 24.833333333333)" /><polyline points="0, 0, 43.012595054627, 24.833333333333, 0, 49.666666666667, 0, 0" fill="#222" fill-opacity="0.11533333333333" stroke="#000" stroke-opacity="0.02" transform="translate(43.012595054627, 99.333333333333) rotate(180, 21.506297527314, 24.833333333333)" /><polyline points="0, 0, 43.012595054627, 24.833333333333, 0, 49.666666666667, 0, 0" fill="#ddd" fill-opacity="0.10666666666667" stroke="#000" stroke-opacity="0.02" transform="translate(86.025190109254, 99.333333333333) rotate(0, 21.506297527314, 24.833333333333)" /><polyline points="0, 0, 43.012595054627, 24.833333333333, 0, 49.666666666667, 0, 0" fill="#222" fill-opacity="0.063333333333333" stroke="#000" stroke-opacity="0.02" transform="translate(129.03778516388, 99.333333333333) rotate(180, 21.506297527314, 24.833333333333)" /><polyline points="0, 0, 43.012595054627, 24.833333333333, 0, 49.666666666667, 0, 0" fill="#ddd" fill-opacity="0.072" stroke="#000" stroke-opacity="0.02" transform="translate(172.05038021851, 99.333333333333) rotate(0, 21.506297527314, 24.833333333333)" /><polyline points="0, 0, 43.012595054627, 24.833333333333, 0, 49.666666666667, 0, 0" fill="#ddd" fill-opacity="0.054666666666667" stroke="#000" stroke-opacity="0.02" transform="translate(215.06297527314, 99.333333333333) rotate(180, 21.506297527314, 24.833333333333)" /></svg>