<svg width="416" height="246" clip-rule="evenodd" fill-rule="evenodd" stroke-linejoin="round" stroke-miterlimit="2" xmlns="http://www.w3.org/2000/svg"><path d="M63.422 176.67v-15.585H0v83.923h19.422v-30.572h38.844v-15.587H19.422v-22.18h44zm36.089 69.297c20.501 0 35.368-13.787 35.368-33.21 0-19.422-14.867-33.21-35.368-33.21s-35.487 13.788-35.487 33.21c0 19.423 14.986 33.21 35.487 33.21zm0-15.346c-9.351 0-16.545-6.714-16.545-17.864s7.194-17.863 16.545-17.863c9.352 0 16.425 6.714 16.425 17.863 0 11.15-7.073 17.864-16.425 17.864zm77.329 15.346c20.501 0 35.368-13.787 35.368-33.21 0-19.422-14.867-33.21-35.368-33.21s-35.488 13.788-35.488 33.21c0 19.423 14.987 33.21 35.488 33.21zm0-15.346c-9.352 0-16.545-6.714-16.545-17.864s7.193-17.863 16.545-17.863c9.351 0 16.425 6.714 16.425 17.863 0 11.15-7.074 17.864-16.425 17.864z" fill="#693dbe" fill-rule="nonzero"/><path d="M281.63 201.37c6.833-3.597 11.15-10.071 11.15-18.463 0-13.068-10.79-21.82-31.772-21.82h-41.002v83.923h43.4c22.06 0 33.57-8.392 33.57-22.9 0-10.55-5.995-17.743-15.346-20.74zm-23.02-25.657c9.472 0 14.627 3.237 14.627 9.831s-5.155 9.951-14.626 9.951h-19.303v-19.782h19.303zm3.358 54.67h-22.66v-20.74h22.66c10.07 0 15.465 3.356 15.465 10.43 0 7.193-5.395 10.31-15.465 10.31zm71.451-50.833c-10.311 0-20.742 2.757-27.815 7.793l6.714 13.068c4.676-3.717 11.75-5.995 18.583-5.995 10.07 0 14.866 4.676 14.866 12.709h-14.865c-19.662 0-27.695 7.912-27.695 19.302 0 11.15 8.992 19.542 24.098 19.542 9.471 0 16.185-3.117 19.662-8.992v8.033h17.504v-36.806c0-19.543-11.39-28.654-31.051-28.654zm-1.44 53.83c-6.593 0-10.55-3.117-10.55-7.792 0-4.316 2.758-7.553 11.51-7.553h12.828v6.594c-2.158 5.874-7.553 8.752-13.787 8.752zm61.27-44.359v-8.512h-17.863v64.5h18.702v-30.451c0-12.349 6.834-17.984 17.145-17.984 1.438 0 2.637.12 4.196.24V179.55c-9.951 0-17.624 3.237-22.18 9.471z" fill="#45297f" fill-rule="nonzero"/><g transform="matrix(.9907 0 0 1.0702 -496.94 -326.39)"><path d="M920.93 337.3c0-17.847-15.653-32.336-34.933-32.336h-384.39v129.34h384.39c19.28 0 34.933-14.489 34.933-32.336z" fill="#45297f"/><clipPath id="_clip1"><path d="M920.93 337.3c0-17.847-15.653-32.336-34.933-32.336h-384.39v129.34h384.39c19.28 0 34.933-14.489 34.933-32.336z"/></clipPath><g clip-path="url(#_clip1)"><path d="M501.61 434.32l419.32-129.35L938 324.62v109.7z" fill="#693dbe"/><path d="M927.72 369.64l-216.45 38.513 216.45-71.887z" fill="#8763d0"/><path d="M501.61 364.62L718 337.309l-216.39 60.338V364.62z" fill="#693dbe"/></g></g><g fill="#fff"><path d="M23.19 21.03H329.3v19.539H44.36v19.538h153.32v19.54H44.36v37.448H23.193z" fill-rule="nonzero"/><path d="M66.4 99.19h185.53v17.911H66.4z"/><path d="M360.33 99.19c1.628 0 3.28-.177 4.952-.531 1.674-.354 3.19-.974 4.546-1.86a10.662 10.662 0 003.324-3.454c.86-1.416 1.29-3.143 1.29-5.18 0-2.214-.566-4.007-1.697-5.38-1.13-1.372-2.555-2.413-4.274-3.121-1.719-.71-3.573-1.196-5.563-1.462-1.99-.265-3.845-.398-5.563-.398h-115.07V90.19h-21.167V58.959h135.48c1.62 0 3.218-.162 4.794-.487 1.575-.325 2.993-.852 4.254-1.583a8.654 8.654 0 003.038-2.922c.765-1.218 1.148-2.68 1.148-4.383 0-1.786-.428-3.267-1.283-4.444a8.644 8.644 0 00-3.309-2.74c-1.35-.65-2.88-1.116-4.59-1.4a30.493 30.493 0 00-4.998-.426h-35.48v-19.54h35.82c4.161 0 8.345.295 12.551.883s7.983 1.764 11.33 3.528a21.69 21.69 0 018.141 7.395c2.08 3.166 3.121 7.372 3.121 12.618 0 5.428-1.516 9.928-4.546 13.5-3.03 3.574-7.033 6.13-12.008 7.667v.272c3.166.452 6.038 1.334 8.616 2.646 2.578 1.31 4.794 2.985 6.65 5.02 1.853 2.035 3.278 4.41 4.273 7.124.995 2.713 1.492 5.608 1.492 8.684 0 5.065-1.085 9.294-3.256 12.686a25.593 25.593 0 01-8.413 8.209c-3.437 2.08-7.304 3.573-11.6 4.478a62.14 62.14 0 01-12.823 1.357h-138.4V103.83h28.2v-4.64z" fill-rule="nonzero"/></g></svg>